<?xml version="1.0" encoding="utf-8"?>
<?xml-stylesheet type="text/xsl" href="rss1.xsl"?>
<rss version="2.0" xmlns:atom="http://www.w3.org/2005/Atom" xmlns:content="http://purl.org/rss/1.0/modules/content/" xmlns:dc="http://purl.org/dc/elements/1.1/" xmlns:media="http://search.yahoo.com/mrss/">
<channel>
 <title>Getty</title>
 <link>http://www.gettyimg.com/</link>
 <atom:link href="http://www.gettyimg.com/" rel="self" type="application/rss+xml" />

 
                <item>
                <title><![CDATA[【Documentaries】WEB-RiP - Dua Lipa - Elevating 2022 (WEB-DL 1080P)]]></title>
                <link><![CDATA[https://sharemania.us/threads/dua-lipa-elevating-2022-web-dl-1080p.223027/]]></link>
                <description><![CDATA[<article>
<blockquote class="messageText SelectQuoteContainer ugc baseHtml">
<img src="https://i.vimeocdn.com/vod_poster/520901_550x814" class="bbCodeImage LbImage" alt="[​IMG]" data-url="https://i.vimeocdn.com/vod_poster/520901_550x814" style=""> <br>
<br>
<img src="https://images2.imgbox.com/5f/87/pg3ClYoh_o.jpg" class="bbCodeImage LbImage" alt="[​IMG]" data-url="https://images2.imgbox.com/5f/87/pg3ClYoh_o.jpg" style=""> <br>
<br>
Fuse Backstage presents the story of pop phenomenon Dua Lipa's journey to international superstardom.<br>
<br>
Source: fuse.tv<br>
<div class="ToggleTriggerAnchor bbCodeSpoilerContainer">
<button type="button" class="button bbCodeSpoilerButton ToggleTrigger Tooltip JsOnly" data-target="> .SpoilerTarget"><span>Spoiler: <span class="SpoilerTitle">MediaInfo</span></span></button>
<div class="SpoilerTarget bbCodeSpoilerText">
<div class="bbCodeBlock bbCodeCode">
<div class="type">Code:</div>
<pre>General
Complete name                            : J:\Dua Lipa - Elevating (2022)\Dua Lipa - Elevating (WEB-DL 1080P).mp4
Format                                   : MPEG-4
Format profile                           : Base Media / Version 2
Codec ID                                 : mp42 (mp42/mp41)
File size                                : 2.66 GiB
Duration                                 : 41 min 50 s
Overall bit rate mode                    : Variable
Overall bit rate                         : 9 101 kb/s
Frame rate                               : 29.970 FPS
Encoded date                             : 2022-01-14 22:14:16 UTC
Tagged date                              : 2022-01-14 22:34:10 UTC
TIM                                      : 00;00;00;00
TSC                                      : 30000
TSZ                                      : 1001

Video
ID                                       : 1
Format                                   : AVC
Format/Info                              : Advanced Video Codec
Format profile                           : High@L4.2
Format settings                          : CABAC / 4 Ref Frames
Format settings, CABAC                   : Yes
Format settings, Reference frames        : 4 frames
Codec ID                                 : avc1
Codec ID/Info                            : Advanced Video Coding
Duration                                 : 41 min 50 s
Bit rate                                 : 8 778 kb/s
Width                                    : 1 920 pixels
Height                                   : 1 080 pixels
Display aspect ratio                     : 16:9
Frame rate mode                          : Constant
Frame rate                               : 29.970 (30000/1001) FPS
Color space                              : YUV
Chroma subsampling                       : 4:2:0
Bit depth                                : 8 bits
Scan type                                : Progressive
Bits/(Pixel*Frame)                       : 0.141
Stream size                              : 2.57 GiB (96%)
Language                                 : English
Encoded date                             : 2022-01-14 22:14:16 UTC
Tagged date                              : 2022-01-14 22:14:16 UTC
Color range                              : Limited
Color primaries                          : BT.709
Transfer characteristics                 : BT.709
Matrix coefficients                      : BT.709
Codec configuration box                  : avcC

Audio
ID                                       : 2
Format                                   : AAC LC
Format/Info                              : Advanced Audio Codec Low Complexity
Codec ID                                 : mp4a-40-2
Duration                                 : 41 min 50 s
Source duration                          : 41 min 50 s
Bit rate mode                            : Variable
Bit rate                                 : 317 kb/s
Maximum bit rate                         : 462 kb/s
Channel(s)                               : 2 channels
Channel layout                           : L R
Sampling rate                            : 48.0 kHz
Frame rate                               : 46.875 FPS (1024 SPF)
Compression mode                         : Lossy
Stream size                              : 95.0 MiB (3%)
Source stream size                       : 95.0 MiB (3%)
Language                                 : English
Encoded date                             : 2022-01-14 22:14:16 UTC
Tagged date                              : 2022-01-14 22:14:16 UTC

</pre>
</div></div>
</div><br>
<div class="bbCodeBlock bbCodeVfcHH HiddenContent">
<div class="attribution type">Hidden Content:</div>
<blockquote>You must reply before you can see the hidden data contained here.</blockquote>
</div>
<div class="messageTextEndMarker">&nbsp;</div>
</blockquote>
</article>]]></description>
                <author><![CDATA[Gizmo234]]></author>
                </item>

                
                <item>
                <title><![CDATA[【UPSCALED】The Beginners - Reckless Girl (1080P Remastered)]]></title>
                <link><![CDATA[https://sharemania.us/threads/the-beginners-reckless-girl-1080p-remastered.223026/]]></link>
                <description><![CDATA[<article>
<blockquote class="messageText SelectQuoteContainer ugc baseHtml">
<a href="https://postimg.cc/TpDYf4Nb" target="_blank" class="externalLink" rel="nofollow"><img src="https://i.postimg.cc/TpDYf4Nb/The-Beginners-Reckless-Girl-1080-P-Remastered-mp4-thumbs-2023-06-20-18-08-41.jpg" class="bbCodeImage LbImage" alt="[​IMG]" data-url="https://i.postimg.cc/TpDYf4Nb/The-Beginners-Reckless-Girl-1080-P-Remastered-mp4-thumbs-2023-06-20-18-08-41.jpg"></a><br>
<br>
<div class="bbCodeBlock bbCodeVfcHH HiddenContent">
<div class="attribution type">Hidden Content:</div>
<blockquote>You must reply before you can see the hidden data contained here.</blockquote>
</div>
<div class="messageTextEndMarker">&nbsp;</div>
</blockquote>
</article>]]></description>
                <author><![CDATA[djalf77]]></author>
                </item>

                
                <item>
                <title><![CDATA[【Albums (lossless)】FLAC - Daft Punk - Random Access Memories (15 IPS Half-Inch Reel-to-Reel Master Tapes)]]></title>
                <link><![CDATA[https://sharemania.us/threads/daft-punk-random-access-memories-15-ips-half-inch-reel-to-reel-master-tapes.223028/]]></link>
                <description><![CDATA[<article>
<blockquote class="messageText SelectQuoteContainer ugc baseHtml">
<b>Daft Punk - Random Access Memories (24bit-96kHz 15 IPS Half-Inch Reel-to-Reel Master Tapes)<br>
</b><br>
<div class="bbCodeBlock bbCodeVfcHH HiddenContent">
<div class="attribution type">Hidden Content:</div>
<blockquote>You must either reply or click 'Like' to see the hidden information contained here.</blockquote>
</div>
<div class="messageTextEndMarker">&nbsp;</div>
</blockquote>
</article>]]></description>
                <author><![CDATA[n45lr]]></author>
                </item>

                </channel></rss>